<svg width="347" height="347" viewBox="0 0 347 347" fill="none" xmlns="http://www.w3.org/2000/svg">
<circle cx="173.5" cy="173.5" r="173.5" fill="#FFFFFB"/>
<path d="M96.4112 217.201C100.835 216.425 104.19 215.298 108.589 213.111C114.888 209.981 124.549 203.365 124.19 202.429C124.094 202.186 123.863 200.374 123.627 198.152C123.879 200.43 124.178 202.242 124.333 202.405C124.621 202.696 137.014 193.261 137.074 192.703C137.086 192.608 136.26 191.827 135.151 190.871C136.324 191.819 137.437 192.54 137.672 192.353C137.912 192.165 140.444 190.15 143.301 187.876C150.967 181.778 153.492 179.855 153.636 180.014C153.708 180.094 154.17 180.966 154.661 181.949C155.746 184.112 161.53 189.931 163.337 190.672C164.051 190.967 164.633 191.333 164.633 191.488C164.633 191.759 156.647 199.406 153.36 202.282L151.745 203.696L154.613 205.811L151.869 203.815L148.47 206.647C146.603 208.208 145.191 209.674 145.331 209.905C145.522 210.212 152.75 215.66 158.043 219.543C156.105 218.125 153.775 216.405 151.669 214.832C146.013 210.602 144.772 209.833 144.194 210.196C143.811 210.435 141.613 212.084 139.308 213.864C136.125 216.321 135.115 217.325 135.115 218.022C135.115 218.52 135.73 222.487 136.444 226.816C135.454 220.973 134.764 217.795 134.477 217.795C134.218 217.795 132.371 219.002 130.373 220.479C127.441 222.646 126.739 223.363 126.739 224.183C126.739 224.39 126.795 224.868 126.886 225.541C126.703 224.355 126.551 223.498 126.515 223.447C126.467 223.383 124.836 224.239 122.893 225.358C116.12 229.257 109.854 231.934 103.655 233.583C100.444 234.435 98.633 234.634 92.6218 234.809C86.3473 234.989 84.8594 234.905 80.9184 234.152C78.4334 233.678 74.7277 232.691 72.6814 231.962L68.9598 230.632L68.2059 232.376C68.3495 232.033 68.501 231.671 68.6646 231.293C68.876 230.807 68.4372 230.4 66.8257 229.592C65.6649 229.007 63.9378 228.083 62.9924 227.537C62.047 226.987 61.1176 226.637 60.9301 226.752C60.7666 226.852 60.4874 227.389 60.1483 228.178C60.4914 227.254 60.7187 226.593 60.7227 226.505C60.7227 226.37 59.199 225.131 57.3322 223.753C41.7875 212.287 33 194.025 33 173.187C33 156.28 38.6163 141.651 49.4501 130.336C52.1147 127.552 59.3585 121.47 60.8264 120.785C60.8703 120.765 60.6709 120.224 60.3478 119.451C60.5911 119.985 60.7945 120.335 60.9222 120.415C61.1096 120.53 62.1308 120.128 63.1878 119.519C64.2449 118.909 65.9721 117.977 67.0212 117.448C68.4252 116.743 68.864 116.325 68.6766 115.863C68.2777 114.891 67.9506 114.066 67.6753 113.345L67.6833 113.373C68.7404 116.074 69.0994 116.631 69.6379 116.396C72.5657 115.114 78.1462 113.429 81.3771 112.852C87.169 111.812 97.8552 112.17 103.48 113.592C110.105 115.261 119.694 119.455 124.932 122.976C125.769 123.537 126.276 123.613 126.527 123.151C126.547 123.892 127.01 124.223 128.857 125.461C130.217 126.369 131.98 127.624 132.778 128.245C133.58 128.866 134.401 129.376 134.609 129.376C134.756 129.376 135.04 128.301 135.331 126.748L134.868 129.727L138.283 132.316C140.161 133.737 142.327 135.442 143.093 136.103C143.859 136.768 144.581 137.314 144.689 137.314C144.792 137.318 148.342 134.745 152.714 131.495C148.737 134.518 145.287 137.23 145.287 137.402C145.287 137.625 146.723 139.039 148.478 140.54C150.233 142.042 151.797 143.284 151.952 143.296C152.04 143.3 152.407 143.073 152.914 142.711L151.936 143.471L154.796 146.08C161.741 152.425 164.146 154.679 164.166 154.866C164.178 154.974 163.105 155.762 161.785 156.611C159.312 158.2 155.594 162.298 154.461 164.676C154.114 165.413 153.66 166.018 153.46 166.018C153.057 166.018 145.614 160.45 140.512 156.336L137.337 153.775L134.669 156.161L134.397 156.404L134.557 156.26C136.069 154.882 137.217 153.671 137.11 153.564C136.511 152.99 124.872 144.384 124.501 144.24C124.182 144.117 123.95 144.543 123.747 145.778C123.887 143.774 123.751 143.452 123.26 143.069C122.869 142.767 120.309 141.006 117.564 139.154C111.665 135.167 105.821 132.196 100.951 130.707C97.7395 129.723 96.8221 129.623 90.8388 129.599C85.0709 129.579 83.8503 129.691 80.9663 130.515C79.1553 131.033 77.6755 131.658 77.6755 131.909C77.6795 132.268 79.3388 134.614 81.6604 137.625C79.5742 134.936 77.9627 132.734 77.7832 132.268C77.6755 131.993 77.4361 131.766 77.2526 131.766C76.7261 131.766 71.6243 134.211 70.3958 135.052C70.0009 135.323 69.7256 135.506 69.6259 135.761C69.5382 135.984 69.59 136.263 69.8254 136.709L69.2071 135.773L67.3602 137.027C64.7196 138.82 59.7534 143.886 57.7989 146.781C49.6576 158.849 47.5514 174.394 52.1706 188.322C54.9947 196.837 60.3278 204.52 66.8656 209.483C68.2697 210.55 69.5262 211.414 69.6578 211.406C69.7216 211.402 69.949 211.124 70.2721 210.67C70.2641 210.69 70.2522 210.709 70.2402 210.733L69.6698 211.837L72.7771 213.231C74.4844 213.995 76.1477 214.788 76.4788 214.991C77.4242 215.572 77.7911 215.469 78.6847 214.194C78.2937 214.796 78.0744 215.202 78.0744 215.341C78.0744 215.656 84.4326 217.205 87.0493 217.528C89.8535 217.875 93.256 217.755 96.4112 217.201ZM278.687 210.012C289.186 201.68 294.818 191.05 296.282 176.804C297.79 162.135 290.865 146.016 279.313 137.306C277.171 135.693 277.016 135.637 276.609 136.358C276.425 136.689 275.967 137.354 275.317 138.242C275.508 137.967 275.699 137.696 275.887 137.426C277.056 135.745 276.828 135.478 272.441 133.339C269.15 131.734 268.986 131.694 268.476 132.411C268.085 132.957 267.686 133.51 267.275 134.068C268.133 132.845 268.743 131.889 268.743 131.758C268.743 131.591 267.263 131.037 265.452 130.523C262.672 129.735 261.232 129.587 256.178 129.583C248.818 129.575 245.671 130.32 238.627 133.737C234.175 135.896 223.605 142.551 222.484 143.902C222.089 144.376 222.097 145.507 222.528 149.462L223.07 154.42L222.599 150.366C222.34 148.131 222.113 145.901 222.101 145.407C222.061 144.101 221.283 144.3 219.002 146.204C217.889 147.136 215.252 149.239 213.142 150.883C211.036 152.524 209.309 154.066 209.309 154.305C209.309 154.424 209.564 154.735 209.975 155.141C209.899 155.073 209.835 155.01 209.775 154.954L208.85 154.046L206.584 155.97C205.34 157.029 203.856 158.244 203.285 158.67C202.715 159.096 200.154 161.04 197.593 162.987C195.028 164.935 192.882 166.46 192.815 166.373C192.751 166.289 192.212 165.373 191.618 164.337C190.226 161.904 186.652 158.065 184.043 156.193C182.91 155.38 181.909 154.659 181.813 154.588C181.614 154.436 184.262 151.947 189.863 147.012C192.001 145.128 193.748 143.479 193.74 143.352C193.736 143.264 193.038 142.667 191.913 141.759C192.842 142.472 193.473 142.946 193.604 143.021C193.919 143.217 195.435 142.269 197.733 140.449C201.195 137.704 201.327 137.541 200.593 136.96C198.239 135.096 188.941 128.026 185.072 125.139C185.144 125.186 185.216 125.238 185.288 125.29C187.202 126.66 191.63 129.998 195.128 132.71L201.494 137.645L206.249 134.008C208.862 132.009 211.084 130.165 211.179 129.914C211.291 129.631 210.928 126.943 210.393 123.545C210.96 126.815 211.427 129.233 211.522 129.328C211.794 129.599 212.679 129.066 216.632 126.246L219.767 124.007L219.528 121.96C219.392 120.837 218.734 116.982 218.06 113.393C217.785 111.916 217.51 110.438 217.274 109.159C217.334 109.454 217.394 109.757 217.454 110.06C217.98 112.688 218.73 116.854 219.121 119.32C219.512 121.785 219.951 123.8 220.09 123.8C220.234 123.8 221.862 122.888 223.704 121.773C230.497 117.675 236.385 115.118 243.015 113.389C246.25 112.549 247.454 112.457 255.181 112.461C264.531 112.469 266.593 112.788 273.845 115.357L277.151 116.528L277.702 115.464C277.834 115.209 277.961 114.954 278.081 114.692C277.853 115.472 277.806 115.982 277.981 116.4C278.26 117.049 279.102 117.464 280.698 118.288C282.337 119.14 283.853 120.009 284.068 120.224C284.802 120.957 285.281 120.821 286.079 119.025C285.855 119.65 285.692 120.108 285.64 120.272C285.488 120.73 286.007 121.319 287.355 122.235C299.553 130.499 308.38 143.475 311.424 157.606C313.362 166.624 313.53 178.532 311.831 186.729C308.54 202.581 300.207 215.728 287.957 224.374L285.233 226.298L285.843 227.752C285.5 227.011 285.217 226.557 285.065 226.557C284.874 226.557 283.952 226.999 283.015 227.545C282.074 228.086 280.354 229.007 279.194 229.592C277.566 230.408 277.143 230.803 277.367 231.293C277.415 231.396 277.502 231.627 277.622 231.946L277.06 230.632L273.402 231.934C268.683 233.611 264.754 234.451 259.692 234.865C247.877 235.829 237.011 232.953 223.936 225.406C222.001 224.287 220.282 223.371 220.114 223.371C220.015 223.371 219.835 223.944 219.648 224.813L219.951 223.1L218.519 222.144C217.733 221.618 215.866 220.316 214.374 219.249C212.883 218.177 211.554 217.413 211.423 217.54C211.295 217.671 210.764 220.607 210.25 224.06C210.142 224.809 210.015 225.621 209.883 226.462C210.633 221.622 211.223 217.189 211.092 216.974C210.8 216.504 202.212 209.829 201.901 209.829C201.774 209.829 199.927 211.132 197.493 212.928L202.085 209.507L200.613 208.515C199.799 207.973 198.156 206.639 196.955 205.552L194.777 203.58L191.989 205.703C193.608 204.429 194.55 203.608 194.55 203.437C194.55 203.254 194.199 202.859 193.768 202.557C193.337 202.258 190.549 199.713 187.569 196.905L182.152 191.803L184.554 190.234C187.477 188.33 190.098 185.411 191.586 182.404C192.2 181.169 192.739 180.101 192.783 180.038C192.89 179.874 200.653 185.741 205.344 189.537L209.161 192.623L211.65 190.373L212.779 189.354L211.614 190.421L209.109 192.723L210.106 193.532C210.657 193.974 211.81 194.91 212.675 195.611C217.841 199.804 221.507 202.656 221.722 202.66C221.973 202.66 222.24 201.306 222.484 198.869C222.42 199.542 222.36 200.167 222.312 200.669L222.053 203.258L223.956 204.652C239.257 215.843 250.199 219.384 262.245 217.034C264.395 216.616 266.657 216.074 267.279 215.835L268.412 215.401L266.513 212.717C267.558 214.194 268.492 215.405 268.583 215.405C268.679 215.405 269.066 215.242 269.445 215.047C269.828 214.848 271.531 214.047 273.23 213.262C274.93 212.482 276.322 211.689 276.322 211.502C276.322 211.319 275.428 209.873 274.339 208.292C272.229 205.233 269.896 202.126 267.279 198.9C270.299 202.596 272.863 206.034 274.918 209.132C275.751 210.391 276.545 211.422 276.677 211.418C276.812 211.414 277.714 210.785 278.687 210.012ZM116.14 160.757C119.315 157.857 122.044 155.141 122.75 154.189C122.55 154.671 122.255 155.018 121.788 155.504C119.056 158.343 109.499 166.815 109.028 166.815C109.024 166.815 109.024 166.815 109.02 166.815C109.331 166.775 112.518 164.063 116.14 160.757ZM248.013 156.599C249.943 154.619 251.734 152.739 253.414 150.931C248.902 155.914 244.271 160.602 240.059 164.393L236.983 167.161L239.999 164.441C241.658 162.943 245.264 159.415 248.013 156.599ZM266.948 149C266.03 150.131 265.161 151.182 264.403 152.078C262.452 154.376 258.204 158.949 254.231 163.055C258.854 158.28 263.154 153.52 266.948 149ZM91.848 254.636C89.8096 254.871 87.8112 255.026 85.8527 255.098C84.0936 255.166 82.4861 255.17 81.0142 255.106C84.1614 255.134 88.4016 254.951 91.848 254.636ZM216.397 103.998L220.932 102.086C218.224 103.245 216.493 104.185 216.493 104.619L216.397 103.998ZM71.026 138.501C71.4408 139.062 71.9514 139.744 72.5697 140.572C74.8633 143.635 77.2806 146.67 79.8295 149.685C76.2833 145.539 73.1999 141.643 71.026 138.501ZM230.023 248.706C235.224 250.462 240.597 252.003 245.38 253.111C240.98 252.143 236.353 250.844 231.555 249.227C231.06 249.06 230.549 248.885 230.023 248.706ZM132 158.578L131.789 162.764L131.801 158.758L132 158.578ZM131.96 186.669C131.992 187.091 132.024 187.414 132.056 187.617C132.128 188.051 133.069 189.059 134.166 190.035L132.032 188.234L131.96 186.669ZM267.602 254.986C266.17 255.146 264.598 255.225 262.879 255.225C261.208 255.229 259.469 255.158 257.666 255.014C261.18 255.229 264.898 255.221 267.602 254.986ZM59.9489 118.523C59.9289 118.479 59.905 118.431 59.8851 118.384C58.7043 115.727 57.8188 112.708 57.2963 109.761C57.388 110.239 57.4917 110.737 57.6074 111.254C58.0462 113.262 59.1152 116.48 59.9489 118.523ZM74.4525 254.13C71.4568 253.226 69.3866 251.685 67.9067 249.379C69.3547 251.569 71.4807 253.111 74.4525 254.13ZM284.084 256.882C287.73 253.019 289.513 248.017 289.373 242.182C289.433 243.811 289.349 245.34 289.114 246.706C288.42 250.721 286.693 254.158 284.084 256.882ZM100.448 253.19C107.807 251.533 115.462 249.132 123.915 245.83C115.131 249.259 107.452 251.681 100.448 253.19ZM222.58 197.873C222.631 197.279 222.683 196.638 222.731 195.945L222.982 192.412L228.359 187.478C230.103 185.877 231.483 184.614 232.58 183.618C231.539 184.566 230.242 185.757 228.619 187.251L223.07 192.353L222.819 195.216C222.755 195.969 222.667 196.925 222.58 197.873ZM214.694 167.938C214.662 167.293 214.63 166.632 214.586 165.951L214.279 160.725C214.47 162.45 214.614 165.054 214.694 167.938ZM209.237 116.687C208.435 112.182 207.653 108.267 207.454 108.267C207.697 108.267 208.2 110.601 209.237 116.687ZM216.417 242.863C216.544 243.444 217.358 243.846 220.477 245.141C220.585 245.185 220.693 245.229 220.8 245.272C218.399 244.32 216.648 243.564 216.437 243.345C216.401 243.309 216.397 243.142 216.417 242.863ZM127.257 118.487C128.031 113.899 129.423 106.244 129.766 104.882C129.575 105.647 128.135 113.505 127.257 118.487ZM219.249 227.091C218.934 229.062 218.256 232.774 217.677 235.718C217.258 237.828 216.867 239.876 216.632 241.162C216.76 240.342 216.939 239.354 217.151 238.306C217.681 235.678 218.527 231.181 219.033 228.313L219.249 227.091ZM155.714 140.548C159.95 137.306 169.827 130.065 171.65 128.902C170.086 129.906 160.441 136.972 155.714 140.548ZM263.868 263.964C259.564 264.087 254.806 263.896 251.244 263.382C253.669 263.733 258.192 263.992 261.814 263.992C262.516 263.992 263.202 263.98 263.868 263.964ZM66.8736 247.439C66.3151 246.212 66.1277 245.531 66.1237 243.938C66.2274 245.256 66.4747 246.447 66.8736 247.439ZM142.782 237.211C139.639 238.86 138.813 239.155 138.582 238.748C138.797 239.047 140.141 238.565 142.782 237.211ZM58.2376 251.032C59.203 253.489 60.7227 255.695 62.6813 257.555C61.5325 256.48 60.5273 255.289 59.7016 254.003C59.1232 253.103 58.6365 252.107 58.2376 251.032ZM289.417 103.07C288.915 93.2202 282.584 86.2941 271.288 84C282.612 86.2981 288.943 93.2362 289.417 103.07ZM67.5198 112.931C66.7938 110.964 66.4986 109.741 66.3391 108.044C66.5784 109.733 66.9773 111.43 67.5198 112.931ZM57.0569 239.919C56.8735 242.273 56.9173 244.751 57.1886 246.846C56.8695 244.683 56.8256 242.341 57.0569 239.919ZM279.413 110.86C279.736 109.53 279.948 108.132 280.039 106.678C279.98 108.455 279.82 109.534 279.413 110.86ZM186.301 221.16C188.112 219.866 191.941 217.058 195.244 214.605C190.824 217.914 188.734 219.456 186.301 221.16ZM191.893 230.715C187.816 228.361 184.139 226.163 182.826 225.243C182.455 224.98 182.212 224.793 182.084 224.641L182.591 225.052C183.257 225.589 186.875 227.788 191.893 230.715ZM129.216 238.502C129.244 238.641 129.272 238.772 129.3 238.904C129.363 239.214 129.427 239.501 129.483 239.768C129.722 240.855 129.89 241.612 129.862 242.198C129.754 241.457 129.519 240.103 129.216 238.502ZM180.202 214.378L180.369 214.258C177.274 216.469 174.577 218.352 173.903 218.747C173.883 218.759 173.859 218.767 173.823 218.767C174.761 218.177 177.302 216.429 180.202 214.378ZM214.303 185.438L214.582 180.663C214.63 179.815 214.674 178.998 214.706 178.202C214.67 179.504 214.618 180.707 214.546 181.75L214.303 185.438ZM251.391 92.8976C253.9 92.4436 256.68 92.2205 260.645 92.1767C256.752 92.2205 253.868 92.4515 250.39 93.0848C250.729 93.0211 251.06 92.9574 251.391 92.8976ZM129.012 243.639C128.171 244.225 126.607 244.778 123.915 245.83C126.567 244.794 128.143 244.129 129.012 243.639ZM162.292 222.606C162.459 222.722 162.611 222.825 162.746 222.921C163.791 223.634 164.557 224.367 164.446 224.546C164.446 224.55 164.442 224.55 164.442 224.554C164.513 224.39 163.596 223.57 162.292 222.606ZM136.236 121.092C137.086 115.815 138.279 109.056 138.49 108.395C138.298 109.036 137.158 115.488 136.236 121.092ZM279.569 247.164C279.473 247.487 279.361 247.786 279.234 248.064C278.069 250.653 276.162 252.481 273.314 253.644C276.138 252.457 278.089 250.613 279.234 248.064C279.357 247.782 279.473 247.483 279.569 247.164ZM183.867 124.246C183.704 124.123 183.576 124.031 183.489 123.972C182.563 123.33 181.845 122.673 181.893 122.514C181.985 122.215 185.563 120.068 190.018 117.531C185.563 120.068 181.985 122.215 181.897 122.514C181.861 122.629 182.675 123.338 183.867 124.246ZM84.7677 206.061C85.8926 204.64 87.0174 203.254 88.0186 202.063C90.2045 199.466 94.1854 195.049 97.9749 190.963C94.1695 195.069 90.1806 199.498 88.0306 202.063C86.9337 203.373 85.8247 204.731 84.7677 206.061ZM288.312 234.913C288.3 234.861 288.284 234.806 288.272 234.754C287.822 233.033 287.199 231.145 286.617 229.616C287.303 231.344 287.874 233.133 288.312 234.913ZM167.429 214.951C165.535 213.661 163.257 212.06 160.62 210.168C162.846 211.753 165.283 213.462 167.429 214.951ZM80.9862 196.527C85.729 190.939 91.5009 184.59 97.0814 178.907C91.489 184.61 85.7529 190.923 80.9862 196.527ZM267.135 263.804C269.202 263.649 271.068 263.39 272.768 263.02C272.492 263.088 272.213 263.147 271.934 263.203C270.642 263.47 268.986 263.673 267.135 263.804ZM208.471 234.821C208.523 234.555 208.575 234.276 208.626 233.989C208.571 234.284 208.523 234.559 208.475 234.806L207.633 239.27L207.585 239.25C207.673 238.936 208.048 237.064 208.471 234.821ZM164.382 224.609C163.943 224.98 161.374 226.553 158.107 228.489C161.398 226.529 163.967 224.94 164.382 224.609ZM204.175 237.534C202.918 236.889 201.251 235.988 199.392 234.961C200.956 235.809 202.699 236.749 204.175 237.534ZM66.5664 237.625C66.7539 236.534 67.0331 235.506 67.452 234.324C67.085 235.403 66.7858 236.514 66.5664 237.625ZM279.349 236.976C279.756 238.533 279.999 240.17 280.083 241.736C279.992 240.214 279.744 238.601 279.349 236.976ZM66.1596 102.628C66.2234 101.588 66.3949 100.867 66.71 100.039C66.4388 100.748 66.2553 101.632 66.1596 102.628ZM280.015 101.994C279.9 100.712 279.633 100.023 279.022 98.8559C278.428 97.7208 277.678 96.753 276.721 95.9126C277.678 96.753 278.432 97.7208 279.026 98.8559C279.648 100.039 279.912 100.696 280.015 101.994ZM212.883 157.65L212.432 157.276C212.133 157.033 211.81 156.762 211.49 156.487C211.542 156.531 211.598 156.575 211.654 156.619C212.165 157.029 212.563 157.36 212.883 157.65ZM59.1431 230.823C58.828 231.731 58.5169 232.695 58.2416 233.615C58.5049 232.683 58.8041 231.751 59.1431 230.823ZM127.114 227.031C127.305 228.234 127.556 229.711 127.832 231.269C127.525 229.556 127.257 228.003 127.114 227.031ZM123.193 151.668C123.145 152.25 123.097 152.712 123.033 153.094C123.081 152.716 123.133 152.226 123.193 151.668ZM99.0359 157.18C95.5935 153.656 91.9716 149.852 89.4467 147.064C91.9716 149.844 95.5935 153.652 99.0359 157.18ZM138.562 238.701C138.558 238.697 138.558 238.693 138.554 238.685C138.534 238.633 138.494 238.466 138.438 238.203C138.494 238.458 138.534 238.625 138.562 238.701Z" fill="#4AA7B0"/>
<path d="M170.06 313.688C165.137 312.865 158.405 308.24 153.838 302.54C145.369 291.976 139.084 277.245 133.135 253.993L132.712 252.34L127.345 254.464C105.289 263.188 86.4314 266.265 73.4669 263.252C65.7089 261.452 59.8595 256.264 57.9909 249.535C57.0765 246.226 57.0246 240.571 57.8751 236.452C58.5179 233.331 60.67 227.268 61.257 226.905C61.4446 226.789 62.3749 227.14 63.3212 227.691C64.2675 228.238 65.9964 229.164 67.1583 229.751C68.7714 230.561 69.2106 230.968 68.999 231.455C67.1663 235.713 66.7231 237.529 66.5354 241.532C66.3557 245.444 66.4196 245.947 67.334 247.918C70.0211 253.709 75.1598 255.725 86.2038 255.31C97.0921 254.907 109.023 251.997 124.303 246.022C131.103 243.364 130.703 243.879 129.693 239.082C128.627 234.037 127.13 225.412 127.13 224.331C127.13 223.509 127.833 222.79 130.767 220.619C132.768 219.138 134.616 217.929 134.876 217.929C135.179 217.929 135.942 221.517 137.028 228.078C137.954 233.662 138.825 238.515 138.956 238.862C139.16 239.389 139.995 239.078 143.848 237.042C149.206 234.209 164.57 225.185 164.874 224.694C164.985 224.514 164.219 223.78 163.173 223.066C159.683 220.683 146.008 210.45 145.74 210.023C145.6 209.791 147.014 208.322 148.882 206.758L152.284 203.92L157.974 208.063C167.9 215.291 173.805 219.198 174.34 218.883C175.77 218.049 186.235 210.545 190.427 207.349L195.235 203.685L197.415 205.66C198.617 206.75 200.262 208.087 201.076 208.63L202.549 209.624L196.045 214.477C192.464 217.143 188.143 220.312 186.443 221.521C184.738 222.73 183.069 223.912 182.733 224.151C182.21 224.518 182.29 224.698 183.272 225.392C186.135 227.4 200.258 235.518 205.249 238.02L208.103 239.449L208.946 234.975C209.409 232.517 210.212 227.667 210.723 224.207C211.238 220.747 211.769 217.805 211.897 217.674C212.028 217.546 213.358 218.312 214.851 219.386C216.344 220.455 218.213 221.76 219 222.287L220.433 223.245L219.515 228.47C219.008 231.343 218.161 235.849 217.63 238.483C217.099 241.117 216.78 243.388 216.915 243.532C217.399 244.035 226.111 247.427 232.048 249.427C243.811 253.39 254.563 255.453 263.403 255.437C272.559 255.425 277.53 253.246 279.774 248.261C281.083 245.356 280.916 239.844 279.386 235.49C278.728 233.626 278.065 231.81 277.905 231.455C277.682 230.964 278.105 230.569 279.734 229.751C280.896 229.164 282.617 228.242 283.559 227.699C284.497 227.152 285.42 226.709 285.611 226.709C286.09 226.709 287.847 231.207 288.821 234.923C291.269 244.262 289.656 252.109 284.178 257.561C279.402 262.314 273.182 264.21 262.337 264.222C258.712 264.222 254.184 263.962 251.756 263.611C243.02 262.35 231.545 259.121 220.393 254.787C217.335 253.602 214.711 252.767 214.56 252.939C214.408 253.111 213.889 254.867 213.402 256.842C209.549 272.595 203.4 287.817 196.96 297.556C193.122 303.355 187.153 309.369 183.188 311.425C178.605 313.807 174.748 314.47 170.06 313.688ZM178.146 303.55C182.625 301.463 188.259 294.774 193.106 285.778C197.351 277.899 201.879 265.375 205.117 252.564L206.095 248.68L201.052 246.022C195.011 242.834 186.526 238.012 180.234 234.185C177.706 232.648 175.187 231.124 174.632 230.792C173.654 230.21 173.426 230.305 167.844 233.702C159.332 238.882 149.733 244.354 145.357 246.529C142.953 247.723 141.504 248.676 141.504 249.064C141.504 251.219 146.834 268.688 149.781 276.199C153.873 286.62 159.93 296.494 164.969 300.972C169.086 304.628 173.833 305.558 178.146 303.55ZM76.8208 215.119C76.4894 214.916 74.8244 214.121 73.1155 213.355L70.0051 211.958L70.5761 210.853C73.2073 205.764 85.6488 190.997 97.4435 178.96L102.974 173.316L96.4293 166.987C87.3697 158.226 79.6158 149.509 72.9079 140.545C69.4022 135.86 69.4222 135.912 70.7318 135.014C71.9616 134.172 77.0684 131.721 77.5954 131.721C77.7791 131.721 78.0186 131.949 78.1264 132.224C78.4538 133.074 83.5207 139.675 87.5494 144.493C91.9814 149.797 108.651 166.843 109.402 166.843C109.873 166.843 119.44 158.354 122.175 155.508C123.325 154.311 123.425 153.96 123.68 150.372C124.019 145.546 124.323 144.002 124.89 144.221C125.261 144.365 136.912 152.99 137.511 153.564C137.619 153.672 136.469 154.886 134.956 156.266L132.197 158.769L132.161 170.092C132.137 176.318 132.189 182.963 132.273 184.859L132.428 188.307L134.964 190.446C136.357 191.624 137.487 192.673 137.475 192.785C137.415 193.344 125.01 202.799 124.722 202.507C124.539 202.32 124.163 199.861 123.892 197.052C123.437 192.314 123.325 191.879 122.37 191.129C121.803 190.686 118.697 187.912 115.471 184.966L109.598 179.606L106.926 182.105C103.748 185.074 92.6362 197.087 88.3719 202.164C85.2735 205.852 80.9853 211.416 79.2165 214.046C78.1823 215.582 77.831 215.742 76.8208 215.119ZM123.053 169.976L122.937 166.763L119.404 170.068L115.87 173.376L119.404 176.645L122.937 179.914L123.053 176.549C123.117 174.701 123.117 171.744 123.053 169.976ZM267.041 212.84C264.162 208.757 261.555 205.477 256.656 199.769C251.701 193.998 239.251 181.015 238.065 180.377C237.183 179.906 237.103 179.966 228.85 187.549L223.468 192.494L223.216 196.034C222.913 200.296 222.545 202.763 222.206 202.763C221.99 202.759 218.321 199.901 213.15 195.699C212.284 194.996 211.13 194.058 210.579 193.615L209.581 192.805L212.088 190.498L214.596 188.195L215.023 181.81C215.422 175.871 215.258 164.708 214.711 160.381C214.496 158.685 214.256 158.334 212.128 156.626C210.838 155.592 209.78 154.546 209.78 154.307C209.78 154.067 211.509 152.523 213.617 150.878C215.73 149.23 218.369 147.123 219.483 146.189C221.767 144.281 222.545 144.082 222.585 145.391C222.597 145.886 222.825 148.121 223.084 150.36L223.555 154.431L230.519 160.812L237.482 167.19L240.561 164.416C249.948 155.955 261.415 143.04 269.005 132.368C269.516 131.649 269.68 131.689 272.974 133.298C277.366 135.441 277.594 135.708 276.424 137.393C270.814 145.486 262.285 155.46 252.511 165.362L244.318 173.66L249.932 179.331C260.988 190.502 268.846 199.658 274.875 208.406C275.965 209.991 276.859 211.439 276.859 211.623C276.859 211.811 275.466 212.605 273.765 213.387C272.064 214.173 270.359 214.976 269.975 215.175C269.596 215.371 269.209 215.534 269.113 215.534C269.021 215.534 268.087 214.321 267.041 212.84ZM228.878 175.512L231.01 173.52L228.307 171.077C226.818 169.736 225.188 168.312 224.677 167.912L223.755 167.182V173.64V180.097L225.252 178.8C226.075 178.09 227.708 176.609 228.878 175.512ZM169.365 187.832C160.01 185.13 155.53 174.246 160.186 165.538C161.528 163.027 164.538 160.258 167.369 158.932C169.393 157.987 170.132 157.863 173.845 157.863C177.678 157.863 178.233 157.963 180.318 159.016C185.209 161.495 188.515 166.276 188.906 171.433C189.433 178.405 186.223 183.961 179.982 186.882C176.936 188.307 172.412 188.71 169.365 187.832ZM148.89 140.514C147.134 139.009 145.696 137.592 145.696 137.369C145.696 137.025 159.431 126.569 163.7 123.663C164.446 123.156 165.057 122.645 165.057 122.534C165.069 121.807 139.348 107.759 138.917 108.249C138.745 108.441 136.844 119.405 136.074 124.637C135.69 127.215 135.211 129.326 135.008 129.326C134.8 129.326 133.977 128.816 133.175 128.193C132.376 127.57 130.612 126.313 129.25 125.403C126.83 123.779 126.786 123.711 127.002 122.242C127.313 120.099 129.897 105.823 130.16 104.781C130.356 103.995 129.977 103.74 126.423 102.263C114.257 97.218 101.624 93.6699 91.2387 92.3808C77.6593 90.6966 69.6098 93.207 67.0425 99.928C66.4715 101.421 66.3717 102.566 66.5354 105.875C66.7231 109.778 66.9786 110.808 69.0109 115.785C69.1986 116.248 68.7594 116.667 67.3539 117.373C66.3038 117.904 64.575 118.838 63.5169 119.449C62.4588 120.059 61.4366 120.462 61.249 120.346C60.69 120.003 58.5978 114.204 57.931 111.167C56.8729 106.346 56.7371 103.456 57.4199 100.191C59.2646 91.387 65.2657 85.7915 75.0241 83.78C80.2426 82.7064 90.1447 82.882 97.3836 84.1831C106.914 85.8953 119.372 89.5791 128.547 93.3946C131.186 94.4921 132.404 94.8314 132.516 94.4921C132.604 94.2247 133.223 91.6983 133.898 88.8766C139.02 67.3885 147.557 49.3008 156.948 40.0415C160.038 36.9923 161.304 36.0584 164.366 34.5537C171.218 31.1892 176.437 31.1533 183.029 34.422C194.787 40.253 206.283 60.6715 212.995 87.6394C213.921 91.3591 214.731 94.4642 214.795 94.54C214.859 94.6158 217.486 93.6979 220.633 92.4966C242.122 84.2909 259.498 81.3574 271.804 83.8518C287.472 87.0288 293.609 99.1138 287.907 115.557C286.202 120.466 285.671 121.213 284.613 120.155C284.397 119.939 282.88 119.069 281.239 118.215C277.821 116.443 277.857 116.575 279.478 112.165C280.405 109.642 280.58 108.513 280.608 104.981C280.64 101.169 280.544 100.606 279.566 98.7426C278.193 96.1245 275.977 94.3844 272.351 93.0713C269.668 92.1014 269.013 92.0296 262.685 92.0376C257.889 92.0456 254.727 92.2571 251.904 92.772C242.797 94.4243 230.491 98.14 221.415 101.979L216.876 103.895L217.095 105.336C217.215 106.13 217.866 109.718 218.54 113.31C219.215 116.906 219.874 120.77 220.01 121.895L220.249 123.946L217.111 126.189C213.154 129.015 212.268 129.55 211.996 129.279C211.877 129.159 211.158 125.303 210.395 120.714C208.882 111.534 208.219 108.174 207.924 108.174C206.766 108.174 182.582 121.668 182.338 122.45C182.29 122.609 183.009 123.268 183.935 123.911C185.317 124.872 198.221 134.679 201.056 136.926C201.791 137.508 201.659 137.672 198.193 140.422C195.893 142.246 194.376 143.196 194.061 143C193.785 142.832 191.234 140.877 188.395 138.65C185.552 136.427 181.088 133.074 178.473 131.206L173.714 127.806L172.085 128.852C170.016 130.177 157.567 139.336 154.764 141.595C153.602 142.529 152.524 143.287 152.368 143.275C152.212 143.263 150.647 142.018 148.89 140.514ZM175.618 115.896C180.086 112.863 192.3 105.811 198.708 102.566C202.713 100.543 206.051 98.8305 206.131 98.7626C206.442 98.4992 202.857 85.113 200.829 78.9747C195.929 64.1517 189.908 52.7891 183.628 46.5111C179.827 42.7115 177.762 41.7217 173.646 41.7217C169.517 41.7217 167.449 42.7115 163.656 46.5031C156.656 53.4955 150.136 66.4107 145.077 83.2971C143.68 87.9627 141.105 97.9165 141.105 98.6509C141.105 98.8065 144.474 100.674 148.591 102.81C156.193 106.749 165.217 111.782 170.651 115.102C172.296 116.112 173.738 116.942 173.853 116.946C173.965 116.95 174.76 116.479 175.618 115.896Z" fill="#F56E5D"/>
</svg>
